# xmcd
#
# Track frame offsets:
#	150
#	15362
#	31684
#	51233
#	68351
#	87285
#	104166
#	119408
#	135736
#	155290
#	172286
#	191243
#
# Disc length: 2777 seconds
#
# Revision: 2
# Processed by: cddbd v1.5.2PL0 Copyright (c) Steve Scherf et al.
# Submitted via: audiograbber 1.83.01
#
DISCID=9f0ad70c
DTITLE=Karaoke Country Hot Hits - CB20271
DYEAR=1900
DGENRE=Karaoke
TTITLE0=Brooks, Garth w/vocal - Wild Horses
TTITLE1=McGraw, Tim w/vocal - Things Change
TTITLE2=Burnette, Billy w/vocal - What a Woman Feels
TTITLE3=England, Tyler w/vocal - I Drove Her to Dallas
TTITLE4=McAlyster w/vocal - I know how the river feels
TTITLE5=Singletary, Daryle w/vocal - I've Thought of Everything
TTITLE6=Brooks, Garth - Wild Horses
TTITLE7=McGraw, Tim - Thinks Change
TTITLE8=Burnette, Billy - What a Woman Feels
TTITLE9=England, Tyler - I drove her to Dallas
TTITLE10=McAlyster - I know ho wthe river feels
TTITLE11=Singletary, Daryle - I've Thought of Everything
EXTD=
EXTT0=
EXTT1=
EXTT2=
EXTT3=
EXTT4=
EXTT5=
EXTT6=
EXTT7=
EXTT8=
EXTT9=
EXTT10=
EXTT11=
PLAYORDER=
